C:\Users\nbianco\repos\ankle-perturb-sim\results\experiments\subject01\walk2\expdata\ground_reaction_unfiltered.mot
version=1
nRows=33
nColumns=19
inDegrees=no
endheader
time	ground_force_r_vx	ground_force_r_vy	ground_force_r_vz	ground_force_r_px	ground_force_r_py	ground_force_r_pz	ground_force_l_vx	ground_force_l_vy	ground_force_l_vz	ground_force_l_px	ground_force_l_py	ground_force_l_pz	ground_torque_r_x	ground_torque_r_y	ground_torque_r_z	ground_torque_l_x	ground_torque_l_y	ground_torque_l_z
1.567000	-15.913687	573.656466	-34.260817	0.879024	0.000000	-0.413854	-0.000000	-0.000000	-0.000000	-0.000000	-0.000000	0.000000	0.000000	2.626645	0.000000	0.000000	0.000000	0.000000
1.568000	-15.813087	575.398644	-34.355509	0.878029	0.000000	-0.413826	-0.000000	-0.000000	0.000000	0.000000	0.000000	-0.000000	0.000000	2.646027	0.000000	0.000000	0.000000	0.000000
1.569000	-15.703266	577.150031	-34.431649	0.877016	0.000000	-0.413804	-0.000000	0.000000	0.000000	0.000000	0.000000	-0.000000	0.000000	2.666729	0.000000	0.000000	0.000000	0.000000
1.570000	-15.583167	578.909347	-34.489896	0.875985	0.000000	-0.413786	-0.000000	0.000000	0.000000	0.000000	0.000000	-0.000000	0.000000	2.688788	0.000000	0.000000	0.000000	0.000000
1.571000	-15.451804	580.675359	-34.531047	0.874936	0.000000	-0.413772	-0.000000	0.000000	0.000000	0.000000	0.000000	-0.000000	0.000000	2.712235	0.000000	0.000000	0.000000	0.000000
1.572000	-15.308282	582.446900	-34.556031	0.873870	0.000000	-0.413762	0.000000	0.000000	0.000000	0.000000	0.000000	-0.000000	0.000000	2.737084	0.000000	0.000000	0.000000	0.000000
1.573000	-15.151809	584.222876	-34.565892	0.872787	0.000000	-0.413756	0.000000	0.000000	0.000000	0.000000	0.000000	-0.000000	0.000000	2.763345	0.000000	0.000000	0.000000	0.000000
1.574000	-14.981708	586.002275	-34.561766	0.871689	0.000000	-0.413753	0.000000	0.000000	0.000000	0.000000	0.000000	-0.000000	0.000000	2.791014	0.000000	0.000000	0.000000	0.000000
1.575000	-14.797431	587.784170	-34.544870	0.870576	0.000000	-0.413752	0.000000	0.000000	0.000000	0.000000	0.000000	-0.000000	0.000000	2.820081	0.000000	0.000000	0.000000	0.000000
1.576000	-14.598563	589.567716	-34.516471	0.869448	0.000000	-0.413755	0.000000	0.000000	0.000000	0.000000	0.000000	-0.000000	0.000000	2.850527	0.000000	0.000000	0.000000	0.000000
1.577000	-14.384830	591.352148	-34.477870	0.868308	0.000000	-0.413759	0.000000	0.000000	0.000000	0.000000	0.000000	-0.000000	0.000000	2.882326	0.000000	0.000000	0.000000	0.000000
1.578000	-14.156102	593.136773	-34.430377	0.867155	0.000000	-0.413766	0.000000	0.000000	-0.000000	0.000000	0.000000	-0.000000	0.000000	2.915448	0.000000	0.000000	0.000000	0.000000
1.579000	-13.912390	594.920961	-34.375289	0.865992	0.000000	-0.413774	0.000000	0.000000	-0.000000	-0.000000	-0.000000	0.000000	0.000000	2.949858	0.000000	0.000000	0.000000	0.000000
1.580000	-13.653841	596.704130	-34.313869	0.864819	0.000000	-0.413784	0.000000	-0.000000	-0.000000	-0.000000	-0.000000	0.000000	0.000000	2.985517	0.000000	0.000000	0.000000	0.000000
1.581000	-13.380733	598.485737	-34.247328	0.863639	0.000000	-0.413796	0.000000	-0.000000	-0.000000	-0.000000	-0.000000	0.000000	0.000000	3.022385	0.000000	0.000000	0.000000	0.000000
1.582000	-13.093465	600.265262	-34.176809	0.862451	0.000000	-0.413808	0.000000	-0.000000	-0.000000	-0.000000	-0.000000	0.000000	0.000000	3.060421	0.000000	0.000000	0.000000	0.000000
1.583000	-12.792539	602.042192	-34.103372	0.861258	0.000000	-0.413822	-0.000000	-0.000000	-0.000000	-0.000000	-0.000000	0.000000	0.000000	3.099584	0.000000	0.000000	0.000000	0.000000
1.584000	-12.478548	603.816010	-34.027989	0.860062	0.000000	-0.413837	-0.000000	-0.000000	-0.000000	-0.000000	-0.000000	0.000000	0.000000	3.139836	0.000000	0.000000	0.000000	0.000000
1.585000	-12.152156	605.586182	-33.951532	0.858862	0.000000	-0.413852	-0.000000	-0.000000	-0.000000	-0.000000	-0.000000	0.000000	0.000000	3.181140	0.000000	0.000000	0.000000	0.000000
1.586000	-11.814077	607.352149	-33.874779	0.857662	0.000000	-0.413868	-0.000000	-0.000000	-0.000000	-0.000000	-0.000000	0.000000	0.000000	3.223462	0.000000	0.000000	0.000000	0.000000
1.587000	-11.465055	609.113313	-33.798408	0.856462	0.000000	-0.413885	-0.000000	-0.000000	-0.000000	-0.000000	-0.000000	0.000000	0.000000	3.266773	0.000000	0.000000	0.000000	0.000000
1.588000	-11.105843	610.869038	-33.723007	0.855264	0.000000	-0.413903	-0.000000	-0.000000	-0.000000	-0.000000	-0.000000	0.000000	0.000000	3.311048	0.000000	0.000000	0.000000	0.000000
1.589000	-10.737179	612.618645	-33.649082	0.854068	0.000000	-0.413921	-0.000000	-0.000000	0.000000	0.000000	0.000000	-0.000000	0.000000	3.356269	0.000000	0.000000	0.000000	0.000000
1.590000	-10.359769	614.361408	-33.577065	0.852876	0.000000	-0.413940	-0.000000	0.000000	0.000000	0.000000	0.000000	-0.000000	0.000000	3.402420	0.000000	0.000000	0.000000	0.000000
1.591000	-9.974261	616.096563	-33.507330	0.851689	0.000000	-0.413960	-0.000000	0.000000	0.000000	0.000000	0.000000	-0.000000	0.000000	3.449493	0.000000	0.000000	0.000000	0.000000
1.592000	-9.581235	617.823307	-33.440201	0.850508	0.000000	-0.413980	-0.000000	0.000000	0.000000	0.000000	0.000000	-0.000000	0.000000	3.497483	0.000000	0.000000	0.000000	0.000000
1.593000	-9.181182	619.540809	-33.375971	0.849333	0.000000	-0.414002	-0.000000	0.000000	0.000000	0.000000	0.000000	-0.000000	0.000000	3.546391	0.000000	0.000000	0.000000	0.000000
1.594000	-8.774495	621.248217	-33.314911	0.848166	0.000000	-0.414024	0.000000	0.000000	0.000000	0.000000	0.000000	-0.000000	0.000000	3.596222	0.000000	0.000000	0.000000	0.000000
1.595000	-8.361457	622.944667	-33.257280	0.847006	0.000000	-0.414047	0.000000	0.000000	0.000000	0.000000	0.000000	-0.000000	0.000000	3.646986	0.000000	0.000000	0.000000	0.000000
1.596000	-7.942238	624.629296	-33.203338	0.845854	0.000000	-0.414071	0.000000	0.000000	0.000000	0.000000	0.000000	-0.000000	0.000000	3.698693	0.000000	0.000000	0.000000	0.000000
1.597000	-7.516889	626.301252	-33.153350	0.844711	0.000000	-0.414097	0.000000	0.000000	0.000000	0.000000	0.000000	-0.000000	0.000000	3.751357	0.000000	0.000000	0.000000	0.000000
1.598000	-7.085346	627.959702	-33.107591	0.843576	0.000000	-0.414123	0.000000	0.000000	0.000000	0.000000	0.000000	-0.000000	0.000000	3.804992	0.000000	0.000000	0.000000	0.000000
1.599000	-6.647434	629.603844	-33.066347	0.842450	0.000000	-0.414150	0.000000	0.000000	0.000000	0.000000	0.000000	-0.000000	0.000000	3.859613	0.000000	0.000000	0.000000	0.000000
